<svg xmlns:xlink="http://www.w3.org/1999/xlink" width="27" xmlns="http://www.w3.org/2000/svg" height="27" id="screenshot-5a570aa0-10cc-11ed-baa8-1f9c01141ad7" viewBox="94 269 27 27" style="-webkit-print-color-adjust: exact;" fill="none" version="1.1"><g id="shape-5a570aa0-10cc-11ed-baa8-1f9c01141ad7"><g id="fills-5a570aa0-10cc-11ed-baa8-1f9c01141ad7"><path fill-rule="evenodd" clip-rule="evenodd" rx="0" ry="0" d="M107.5,269C100.04415863636365,269,94,275.04415863636365,94,282.5C94,289.9558045454546,100.04415863636365,296,107.5,296C114.95580454545455,296,121,289.9558045454546,121,282.5C121,275.04415863636365,114.95580454545455,269,107.5,269ZZM96.45454545454544,282.5C96.45454545454544,285.06524545454545,97.32903863636363,287.42627272727276,98.79615727272727,289.3011772727273C100.81437045454544,286.6591045454545,103.997695,284.9545454545455,107.57915909090909,284.9545454545455C111.11407272727274,284.9545454545455,114.26129090909092,286.6151681818182,116.28297727272727,289.1988227272727C117.70231818181819,287.34073181818184,118.54545454545456,285.01885454545453,118.54545454545456,282.5C118.54545454545456,276.39976727272733,113.60028181818183,271.4545454545455,107.5,271.4545454545455C101.39976727272727,271.4545454545455,96.45454545454544,276.39976727272733,96.45454545454544,282.5ZZM107.5,293.54545454545456C104.86108136363637,293.54545454545456,102.43829772727275,292.6199681818182,100.5385040909091,291.07593636363634C102.09204727272726,288.85874545454544,104.6663009090909,287.40909090909093,107.57915909090909,287.40909090909093C110.45576363636366,287.40909090909093,113.00223181818183,288.82303181818185,114.56148181818182,290.99383181818183C112.6470590909091,292.5870772727273,110.18539545454547,293.54545454545456,107.5,293.54545454545456ZZ" style="fill: rgb(255, 255, 255); fill-opacity: 1;"/></g></g></svg>