<svg xmlns:xlink="http://www.w3.org/1999/xlink" width="23.999999999999943" xmlns="http://www.w3.org/2000/svg" height="24" id="screenshot-893df5c0-10ce-11ed-baa8-1f9c01141ad7" viewBox="0 0 23.999999999999943 24" style="-webkit-print-color-adjust: exact;" fill="none" version="1.1"><g id="shape-893df5c0-10ce-11ed-baa8-1f9c01141ad7" rx="0" ry="0" style="fill: rgb(0, 0, 0);"><g id="shape-893e1cd0-10ce-11ed-baa8-1f9c01141ad7" rx="0" ry="0" style="fill: rgb(0, 0, 0);"><g id="shape-893e9200-10ce-11ed-baa8-1f9c01141ad7"><g id="fills-893e9200-10ce-11ed-baa8-1f9c01141ad7"><path rx="0" ry="0" d="M23.697509990777633,22.289406214747203L16.8115585613279,15.392882781253206C18.169074700276667,13.763511434724649,18.985551798340055,11.681263460157936,18.985551798340055,9.4070351758794C18.985551798340055,4.218644241616246,14.731017522287118,0,9.497694435905203,0C4.2643713495235716,0,0,4.223566813660142,0,9.411957747923282C0,14.60034868218645,4.254534276052823,18.818992923802682,9.487857362434568,18.818992923802682C11.711035966799898,18.818992923802682,13.75714724869357,18.0559942569993,15.380264371349483,16.781048097631015L22.290808484475917,23.697261819300593C22.69412849677218,24.100912726899807,23.29418997848137,24.100912726899807,23.697509990777633,23.697261819300593C24.100830003074122,23.293610911701364,24.100830003074122,22.69305712234643,23.697509990777633,22.289406214747203ZZM2.016600061481711,9.411957747923282C2.016600061481711,5.336068095579947,5.371042114970805,2.0231771100399953,9.487857362434568,2.0231771100399953C13.604672609898614,2.0231771100399953,16.959114663387652,5.336068095579947,16.959114663387652,9.411957747923282C16.959114663387652,13.487847400266645,13.604672609898614,16.800738385806596,9.487857362434568,16.800738385806596C5.371042114970805,16.800738385806596,2.016600061481711,13.48292482822275,2.016600061481711,9.411957747923282ZZ" style="fill: rgb(251, 252, 255); fill-opacity: 1;"/></g></g></g></g></svg>